<svg width="48" height="48" viewBox="0 0 48 48" fill="none" xmlns="http://www.w3.org/2000/svg">
<path d="M42.75 32.4375H38.25V27H42.75V32.4375Z" fill="#F35B04"/>
<path d="M42.75 12.9375H38.25V7.5H42.75V12.9375Z" fill="#F35B04"/>
<path d="M9.75 12.9375H5.25V7.5H9.75V12.9375Z" fill="#F35B04"/>
<path d="M9.75 32.4375H5.25V27H9.75V32.4375Z" fill="#F35B04"/>
<path d="M24 24C27.7279 24 30.75 20.9779 30.75 17.25C30.75 13.5221 27.7279 10.5 24 10.5C20.2721 10.5 17.25 13.5221 17.25 17.25C17.25 20.9779 20.2721 24 24 24Z" fill="#F35B04"/>
<path d="M24 7.5C18.624 7.5 14.25 11.874 14.25 17.25C14.25 22.626 18.624 27 24 27C29.376 27 33.75 22.626 33.75 17.25C33.75 11.874 29.376 7.5 24 7.5ZM31.3395 13.5H28.7212C28.179 11.6737 27.3015 10.32 26.469 9.378C28.59 10.0447 30.339 11.55 31.3395 13.5ZM32.25 17.25C32.25 18.0308 32.1338 18.7837 31.9305 19.5H29.067C29.181 18.8048 29.25 18.0592 29.25 17.25C29.25 16.4408 29.181 15.6952 29.067 15H31.9305C32.1338 15.7163 32.25 16.4692 32.25 17.25ZM24.0022 25.3567C23.3002 24.8535 21.7275 23.4975 20.8568 21H27.1515C26.2845 23.5133 24.7102 24.8557 24.0022 25.3567ZM20.46 19.5C20.3303 18.8145 20.25 18.0697 20.25 17.25C20.25 16.4295 20.3295 15.6847 20.4578 15H27.54C27.6698 15.6855 27.75 16.4303 27.75 17.25C27.75 18.0705 27.6705 18.8153 27.5422 19.5H20.46ZM15.75 17.25C15.75 16.4692 15.8663 15.7163 16.0695 15H18.933C18.819 15.6952 18.75 16.4408 18.75 17.25C18.75 18.0592 18.819 18.8048 18.933 19.5H16.0695C15.8663 18.7837 15.75 18.0308 15.75 17.25ZM23.9985 9.144C24.7005 9.64725 26.2725 11.0033 27.1433 13.5H20.8485C21.7155 10.989 23.2882 9.64575 23.9985 9.144ZM21.531 9.378C20.6985 10.32 19.8217 11.6737 19.2787 13.5H16.6605C17.661 11.55 19.41 10.0447 21.531 9.378ZM16.6605 21H19.2787C19.821 22.8263 20.6985 24.18 21.531 25.122C19.41 24.4552 17.661 22.95 16.6605 21ZM26.469 25.122C27.3015 24.18 28.1782 22.8263 28.7212 21H31.3395C30.339 22.95 28.59 24.4552 26.469 25.122Z" fill="white"/>
<path d="M23.25 30H24.75V31.5H23.25V30Z" fill="white"/>
<path d="M26.25 30H27.75V31.5H26.25V30Z" fill="white"/>
<path d="M20.25 30H21.75V31.5H20.25V30Z" fill="white"/>
<path d="M47.25 12.75V2.25C47.25 1.42275 46.5773 0.75 45.75 0.75H35.25C34.4227 0.75 33.75 1.42275 33.75 2.25V3.94275C30.933 1.8765 27.5273 0.75 24 0.75C20.4727 0.75 17.067 1.8765 14.25 3.94275V2.25C14.25 1.42275 13.5773 0.75 12.75 0.75H2.25C1.42275 0.75 0.75 1.42275 0.75 2.25V12.75C0.75 13.5773 1.42275 14.25 2.25 14.25H7.773C7.59225 15.2347 7.5 16.2405 7.5 17.25C7.5 18.2048 7.62 19.2105 7.854 20.25H2.25C1.42275 20.25 0.75 20.9228 0.75 21.75V32.25C0.75 33.0773 1.42275 33.75 2.25 33.75H12.75C13.5773 33.75 14.25 33.0773 14.25 32.25V32.0542C16.1775 34.4333 18.3855 36.7418 20.2313 38.4518C17.6602 38.7345 14.25 39.4485 14.25 41.25V44.25C14.25 46.6185 20.379 47.25 24 47.25C27.621 47.25 33.75 46.6185 33.75 44.25V41.25C33.75 39.4485 30.3398 38.7345 27.7688 38.451C29.6145 36.741 31.8225 34.4325 33.75 32.0535V32.25C33.75 33.0773 34.4227 33.75 35.25 33.75H45.75C46.5773 33.75 47.25 33.0773 47.25 32.25V21.75C47.25 20.9228 46.5773 20.25 45.75 20.25H40.146C40.38 19.2105 40.5 18.2048 40.5 17.25C40.5 16.2405 40.4078 15.2347 40.227 14.25H45.75C46.5773 14.25 47.25 13.5773 47.25 12.75ZM35.25 2.25H45.75L45.7507 12.75H35.25V2.25ZM2.25 2.25H12.75L12.7507 12.75H2.25V2.25ZM2.25 32.25V21.75H12.75L12.7507 32.25H2.25ZM24 45.75C18.9937 45.75 16.0065 44.754 15.75 44.25V42.978C17.7967 43.947 21.4965 44.25 24 44.25C26.5058 44.25 30.21 43.9463 32.2552 42.975L32.259 44.196C31.9935 44.754 29.0063 45.75 24 45.75ZM32.226 41.2507C31.8007 41.8162 28.8465 42.75 24 42.75C19.1535 42.75 16.1992 41.8162 15.774 41.2507C16.1002 40.8337 18.0653 40.0628 21.7853 39.822C22.86 40.7145 23.6707 41.25 24 41.25C24.3293 41.25 25.14 40.7145 26.2147 39.822C29.9347 40.0628 31.8997 40.8337 32.226 41.2507ZM45.7507 32.25H35.25V21.75H45.75L45.7507 32.25ZM39 17.25C39 18.1927 38.8597 19.2015 38.5988 20.25H35.25C34.4227 20.25 33.75 20.9228 33.75 21.75V29.613C29.874 34.8293 25.1842 38.85 24 39.657C22.8158 38.85 18.126 34.8293 14.25 29.613V21.75C14.25 20.9228 13.5773 20.25 12.75 20.25H9.40125C9.14025 19.2015 9 18.1927 9 17.25C9 16.2375 9.1065 15.2325 9.306 14.25H12.75C13.5773 14.25 14.25 13.5773 14.25 12.75V5.86575C16.9657 3.53775 20.4105 2.25 24 2.25C27.5895 2.25 31.0343 3.53775 33.75 5.86575V12.75C33.75 13.5773 34.4227 14.25 35.25 14.25H38.694C38.8935 15.2325 39 16.2375 39 17.25Z" fill="white"/>
</svg>
