<svg width="24" height="24" viewBox="0 0 24 24" fill="none" xmlns="http://www.w3.org/2000/svg">
<g clip-path="url(#clip0_1667_1369)">
<path fill-rule="evenodd" clip-rule="evenodd" d="M12.0485 0.000488281C12.4623 0.01192 12.856 0.181325 13.1489 0.473926L14.589 1.91514C14.6146 1.94424 14.6483 1.96516 14.6857 1.97527C14.7231 1.98539 14.7627 1.98427 14.7995 1.97205L16.7682 1.44475C17.1842 1.3335 17.6273 1.39192 18.0003 1.60719C18.3732 1.82245 18.6454 2.17696 18.7571 2.59282L19.2845 4.56157C19.2923 4.59935 19.311 4.63402 19.3383 4.66131C19.3656 4.68859 19.4003 4.7073 19.438 4.71513L21.4076 5.24247C21.8232 5.35466 22.1773 5.62698 22.3925 5.99976C22.6077 6.37255 22.6664 6.81542 22.5557 7.23138L22.0273 9.20013C22.0155 9.23697 22.0146 9.27642 22.0247 9.31376C22.0348 9.35109 22.0555 9.38472 22.0842 9.4106L23.5253 10.8517C23.8295 11.1563 24.0005 11.5692 24.0005 11.9998C24.0005 12.4303 23.8295 12.8432 23.5253 13.1478L22.084 14.589C22.0553 14.6149 22.0346 14.6485 22.0245 14.6859C22.0145 14.7232 22.0154 14.7627 22.0271 14.7995L22.5555 16.7683C22.6662 17.1843 22.6075 17.6271 22.3923 17.9999C22.1772 18.3727 21.823 18.645 21.4074 18.7572L19.4379 19.2845C19.4001 19.2924 19.3654 19.3111 19.3381 19.3384C19.3108 19.3656 19.2921 19.4003 19.2843 19.4381L18.7569 21.4068C18.6452 21.8227 18.373 22.1772 18.0001 22.3925C17.6271 22.6077 17.184 22.6661 16.768 22.5549L14.7993 22.0276C14.7625 22.0153 14.7229 22.0142 14.6855 22.0243C14.6481 22.0345 14.6144 22.0554 14.5888 22.0845L13.1487 23.5251C12.8437 23.8291 12.4307 23.9998 12.0001 23.9998C11.5695 23.9998 11.1565 23.8291 10.8515 23.5251L9.41049 22.0839C9.38497 22.055 9.35153 22.0342 9.31431 22.0241C9.27708 22.014 9.23771 22.015 9.20106 22.027L7.23198 22.5543C6.81602 22.6655 6.37292 22.6071 6.00001 22.3918C5.6271 22.1766 5.35489 21.8221 5.24317 21.4063L4.71578 19.4375C4.70794 19.3997 4.6892 19.365 4.66187 19.3377C4.63454 19.3104 4.59981 19.2917 4.56198 19.284L2.59323 18.7567C2.17756 18.6446 1.82327 18.3723 1.608 17.9995C1.39273 17.6267 1.33404 17.1837 1.44479 16.7677L1.97256 14.7992C1.98478 14.7624 1.98592 14.7229 1.97584 14.6854C1.96575 14.648 1.94489 14.6144 1.91584 14.5887L0.474995 13.1477C0.170834 12.843 0 12.4301 0 11.9996C0 11.5691 0.170834 11.1562 0.474995 10.8516L1.9164 9.41036C1.94529 9.3846 1.96601 9.35094 1.976 9.31354C1.986 9.27614 1.98483 9.23664 1.97265 9.19989L1.44489 7.23114C1.33414 6.81513 1.39284 6.37219 1.60811 5.99937C1.82338 5.62656 2.17766 5.3543 2.59332 5.24224L4.56207 4.71489C4.5999 4.70712 4.63463 4.68843 4.66196 4.66114C4.68929 4.63385 4.70803 4.59915 4.71587 4.56133L5.24326 2.59282C5.35504 2.17702 5.62726 1.82258 6.00015 1.60733C6.37304 1.39207 6.81611 1.3336 7.23207 1.44475L9.20115 1.97205C9.23778 1.98427 9.27721 1.98539 9.31447 1.97526C9.35174 1.96514 9.38518 1.94422 9.41059 1.91514L10.8518 0.474113C11.1446 0.181468 11.5382 0.0119962 11.952 0.000488281H12.0485Z" fill="#38B000"/>
<path fill-rule="evenodd" clip-rule="evenodd" d="M10.9883 12.9005L9.34755 11.3205C9.26522 11.2363 9.16682 11.1695 9.0582 11.1241C8.94958 11.0786 8.83295 11.0555 8.71521 11.0559C8.59747 11.0564 8.48102 11.0805 8.37277 11.1268C8.26451 11.1731 8.16665 11.2406 8.08498 11.3255C8.00331 11.4103 7.93949 11.5106 7.89731 11.6205C7.85513 11.7305 7.83545 11.8477 7.83943 11.9654C7.8434 12.0831 7.87096 12.1988 7.92046 12.3056C7.96996 12.4124 8.04041 12.5082 8.12761 12.5873L10.3891 14.7656C10.5547 14.926 10.7768 15.0148 11.0074 15.0127C11.238 15.0107 11.4585 14.9181 11.6213 14.7548L15.8863 10.4898C16.0513 10.3248 16.144 10.101 16.144 9.86764C16.144 9.63429 16.0513 9.4105 15.8863 9.2455C15.7213 9.0805 15.4975 8.9878 15.2642 8.9878C15.0308 8.9878 14.807 9.0805 14.642 9.2455L10.9883 12.9005ZM12 18.5455C10.7055 18.5455 9.43998 18.1616 8.36359 17.4424C7.28719 16.7232 6.44825 15.7009 5.95284 14.5049C5.45743 13.3089 5.3278 11.9928 5.58036 10.7231C5.83292 9.4534 6.45631 8.28711 7.37171 7.37171C8.28711 6.45631 9.4534 5.83292 10.7231 5.58036C11.9928 5.3278 13.3089 5.45743 14.5049 5.95284C15.7009 6.44825 16.7232 7.28719 17.4424 8.36359C18.1616 9.43998 18.5455 10.7055 18.5455 12C18.5437 13.7355 17.8535 15.3993 16.6264 16.6264C15.3993 17.8535 13.7355 18.5437 12 18.5455Z" fill="white"/>
</g>
<defs>
<clipPath id="clip0_1667_1369">
<rect width="24" height="24" fill="white"/>
</clipPath>
</defs>
</svg>
