<svg width="48" height="48" viewBox="0 0 48 48" fill="none" xmlns="http://www.w3.org/2000/svg">
<path d="M34.134 12.2003C33.3945 11.0918 33 9.789 33 8.45625V8.25C33 8.001 33.0157 7.75575 33.042 7.5135C30.7327 5.19 27.5347 3.75 24 3.75C20.4653 3.75 17.2673 5.19 14.958 7.5135C14.9843 7.75575 15 8.001 15 8.25V8.45625C15 9.789 14.6055 11.0918 13.866 12.2003L11.2703 16.0942C11.2665 16.23 11.25 16.3628 11.25 16.5C11.25 19.1842 12.0832 21.6713 13.5 23.7255V22.5C13.5 21.6712 14.1712 21 15 21H21C21.8287 21 22.5 21.6712 22.5 22.5V27C22.5 27.8288 21.8287 28.5 21 28.5H25.5C25.935 28.5 26.3235 28.6882 26.5973 28.9837C32.3933 27.7838 36.75 22.6515 36.75 16.5C36.75 16.3628 36.7335 16.23 36.7297 16.0942L34.134 12.2003Z" fill="#F35B04"/>
<path d="M39.75 12.75C37.2682 12.75 35.25 10.7318 35.25 8.25C35.25 5.76825 37.2682 3.75 39.75 3.75C42.2318 3.75 44.25 5.76825 44.25 8.25C44.25 10.7318 42.2318 12.75 39.75 12.75Z" fill="#F35B04"/>
<path d="M8.25 12.75C5.76825 12.75 3.75 10.7318 3.75 8.25C3.75 5.76825 5.76825 3.75 8.25 3.75C10.7318 3.75 12.75 5.76825 12.75 8.25C12.75 10.7318 10.7318 12.75 8.25 12.75Z" fill="#F35B04"/>
<path d="M39.75 20.25C40.4707 20.25 41.1397 19.8915 41.5402 19.2922L45.9907 12.6172C46.815 11.3812 47.2507 9.94275 47.2507 8.457V8.25C47.2507 4.1145 43.8862 0.75 39.7507 0.75C37.185 0.75 34.9177 2.04675 33.5647 4.01775C30.819 1.9125 27.4605 0.75 24 0.75C20.5395 0.75 17.181 1.9125 14.436 4.01775C13.083 2.04675 10.8157 0.75 8.25 0.75C4.1145 0.75 0.75 4.1145 0.75 8.25V8.45625C0.75 9.94125 1.18575 11.3798 2.01 12.6165L6.4605 19.2915C6.86025 19.8915 7.52925 20.25 8.25 20.25C8.40675 20.25 8.559 20.226 8.70825 20.193C9.3795 22.992 10.7932 25.5277 12.8377 27.5895C12.8527 27.6435 12.8692 27.6975 12.888 27.75H10.5C9.2595 27.75 8.25 28.7595 8.25 30V34.5C8.25 34.764 8.304 35.0145 8.388 35.25H6.75V44.25H11.5125C12.132 45.9952 13.7947 47.25 15.75 47.25C17.7052 47.25 19.368 45.9952 19.9875 44.25H32.5125C33.132 45.9952 34.7947 47.25 36.75 47.25C38.7052 47.25 40.368 45.9952 40.9875 44.25H44.25C45.9045 44.25 47.25 42.9045 47.25 41.25V31.5C47.25 27.7778 44.2222 24.75 40.5 24.75H37.395C38.2605 23.34 38.9077 21.798 39.2955 20.1937C39.444 20.226 39.5947 20.25 39.75 20.25ZM39.75 2.25C43.0582 2.25 45.75 4.94175 45.75 8.25V8.45625C45.75 9.64425 45.4012 10.7948 44.742 11.7848L40.2915 18.4598C40.05 18.8228 39.4492 18.8228 39.2077 18.4598L34.7572 11.7848C34.0987 10.7955 33.75 9.64425 33.75 8.45625V8.25C33.75 4.94175 36.4417 2.25 39.75 2.25ZM29.9932 15.75C29.9565 13.7093 29.7705 11.6565 29.4427 9.75H32.3745C32.553 10.7692 32.9295 11.7443 33.5107 12.6165L35.5987 15.75H29.9932ZM29.25 35.25H27.612C27.696 35.0145 27.75 34.764 27.75 34.5V31.7955C28.257 31.671 28.758 31.521 29.25 31.3462V35.25ZM18.75 34.5V30C18.75 29.586 19.086 29.25 19.5 29.25H20.25V32.25H24.75V29.25H25.5C25.914 29.25 26.25 29.586 26.25 30V34.5C26.25 34.914 25.914 35.25 25.5 35.25H19.5C19.086 35.25 18.75 34.914 18.75 34.5ZM12.75 29.25H14.25V30.75H12.75V29.25ZM15.6262 9.75H18.558C18.2302 11.6565 18.0435 13.7093 18.0075 15.75H12.402L14.4907 12.6165C15.0712 11.7443 15.4485 10.7692 15.6262 9.75ZM11.4015 17.25H18.0202C18.0375 18.267 18.0907 19.2675 18.1777 20.25H15C13.7595 20.25 12.75 21.2595 12.75 22.5V25.2195C11.3992 23.4795 10.4782 21.462 10.047 19.2825L11.4015 17.25ZM17.25 21.75H18.75V23.25H17.25V21.75ZM15 27.75C14.586 27.75 14.25 27.414 14.25 27V22.5C14.25 22.086 14.586 21.75 15 21.75H15.75V24.75H20.25V21.75H21C21.414 21.75 21.75 22.086 21.75 22.5V27C21.75 27.414 21.414 27.75 21 27.75H19.5H16.5H15ZM21.75 29.25H23.25V30.75H21.75V29.25ZM26.5432 28.0185C26.2297 27.8528 25.8787 27.75 25.5 27.75H23.112C23.196 27.5145 23.25 27.264 23.25 27V24.75H27.6172C27.324 25.983 26.9632 27.0863 26.5432 28.0185ZM27.93 23.25H23.25V22.5C23.25 21.2595 22.2405 20.25 21 20.25H19.6815C19.5915 19.2697 19.5375 18.2677 19.5195 17.25H28.4917C28.455 19.3815 28.26 21.42 27.93 23.25ZM19.5135 15.75C19.5517 13.5383 19.7512 11.5163 20.0692 9.75H27.9322C28.2502 11.5163 28.4497 13.5383 28.488 15.75H19.5135ZM24 2.25C25.3237 2.25 26.7412 4.5165 27.624 8.25H20.3752C21.2587 4.5165 22.6762 2.25 24 2.25ZM32.25 8.25H29.148C28.6305 5.925 27.8805 3.91725 26.9115 2.56575C29.0625 3.01875 31.0905 3.96825 32.8342 5.35125C32.4585 6.243 32.25 7.2225 32.25 8.25ZM21.0885 2.56575C20.1195 3.91725 19.3695 5.925 18.852 8.25H15.75C15.75 7.2225 15.5415 6.243 15.1657 5.3505C16.9095 3.9675 18.9375 3.018 21.0885 2.56575ZM7.70775 18.4598L3.25725 11.7848C2.59875 10.7955 2.25 9.64425 2.25 8.45625V8.25C2.25 4.94175 4.94175 2.25 8.25 2.25C11.5582 2.25 14.25 4.94175 14.25 8.25V8.45625C14.25 9.64425 13.9012 10.7948 13.242 11.7848L8.7915 18.4598C8.55 18.8235 7.95 18.8235 7.70775 18.4598ZM9.75 34.5V30C9.75 29.586 10.086 29.25 10.5 29.25H11.25V32.25H15.75V29.25H16.5C16.914 29.25 17.25 29.586 17.25 30V34.5C17.25 34.914 16.914 35.25 16.5 35.25H10.5C10.086 35.25 9.75 34.914 9.75 34.5ZM15.75 45.75C14.0955 45.75 12.75 44.4045 12.75 42.75C12.75 41.0955 14.0955 39.75 15.75 39.75C17.4045 39.75 18.75 41.0955 18.75 42.75C18.75 44.4045 17.4045 45.75 15.75 45.75ZM15.75 38.25C13.2682 38.25 11.25 40.2682 11.25 42.75H8.25V36.75H10.5H16.5H19.5H25.5H29.25V42.75H20.25C20.25 40.2682 18.2317 38.25 15.75 38.25ZM36.75 45.75C35.0955 45.75 33.75 44.4045 33.75 42.75C33.75 41.0955 35.0955 39.75 36.75 39.75C38.4045 39.75 39.75 41.0955 39.75 42.75C39.75 44.4045 38.4045 45.75 36.75 45.75ZM45.75 33.75H33.75V30C33.75 29.586 34.086 29.25 34.5 29.25H45.2362C45.5617 29.9333 45.75 30.6945 45.75 31.5V33.75ZM44.1667 27.75H34.5C33.2595 27.75 32.25 28.7595 32.25 30V35.25H45.75V41.25C45.75 42.0773 45.0772 42.75 44.25 42.75H41.25C41.25 40.2682 39.2317 38.25 36.75 38.25C34.2682 38.25 32.25 40.2682 32.25 42.75H30.75V30C30.75 27.9323 32.4322 26.25 34.5 26.25H40.5C41.9265 26.25 43.2195 26.8237 44.1667 27.75ZM34.5 24.75C31.698 24.75 29.4075 26.9595 29.2635 29.7262C28.7685 29.9235 28.2637 30.0907 27.75 30.2317V30C27.75 29.7367 27.696 29.487 27.6127 29.2522C29.0355 26.4907 29.9092 22.0725 29.9917 17.25H36.5985L37.956 19.2855C37.5667 21.2423 36.7575 23.1172 35.5987 24.75H34.5Z" fill="white"/>
</svg>
