<svg width="22" height="22" viewBox="0 0 22 22" fill="none" xmlns="http://www.w3.org/2000/svg">
<path d="M4.56311 0H0.512836C0.244022 0 0 0.21928 0 0.511981V4.56399C0 4.83286 0.219239 5.07692 0.512836 5.07692H4.56409C4.8329 5.07692 5.07692 4.85764 5.07692 4.56399L5.07597 0.511981C5.07597 0.219295 4.83195 0 4.56313 0L4.56311 0Z" fill="#3D348B"/>
<path d="M13.026 0H8.97475C8.70594 0 8.46191 0.219239 8.46191 0.512836V4.56409C8.46191 4.8329 8.68115 5.07692 8.97475 5.07692H13.026C13.2948 5.07692 13.5388 4.85768 13.5388 4.56409L13.5379 0.512104C13.5379 0.219473 13.2939 0.00021962 13.026 0.00021962L13.026 0Z" fill="#3D348B"/>
<path d="M21.4844 0H17.4382C17.1681 0 16.9229 0.219239 16.9229 0.512836V4.56409C16.9229 4.8329 17.1432 5.07692 17.4382 5.07692L21.4844 5.07502C21.7546 5.07502 21.9998 4.85578 21.9998 4.56218V0.511906C21.9998 0.219275 21.7785 2.14739e-05 21.4844 2.14739e-05V0Z" fill="#3D348B"/>
<path d="M4.56311 8.46155H0.512836C0.244022 8.46155 0 8.68079 0 8.97438V13.0256C0 13.2944 0.219239 13.5385 0.512836 13.5385H4.56409C4.8329 13.5385 5.07692 13.3192 5.07692 13.0256L5.07597 8.97438C5.07597 8.6808 4.83195 8.46155 4.56313 8.46155L4.56311 8.46155Z" fill="#3D348B"/>
<path d="M13.026 8.46149H8.97475C8.70594 8.46149 8.46191 8.68073 8.46191 8.97432V13.0256C8.46191 13.2944 8.68115 13.5384 8.97475 13.5384H13.026C13.2948 13.5384 13.5388 13.3192 13.5388 13.0256L13.5379 8.97432C13.5379 8.68074 13.2939 8.46149 13.026 8.46149L13.026 8.46149Z" fill="#3D348B"/>
<path d="M21.4844 8.46149H17.4382C17.1681 8.46149 16.9229 8.68073 16.9229 8.97432V13.0256C16.9229 13.2944 17.1432 13.5384 17.4382 13.5384L21.4844 13.5375C21.7546 13.5375 21.9998 13.3182 21.9998 13.0246V8.97435C21.9998 8.68076 21.7785 8.46151 21.4844 8.46151V8.46149Z" fill="#3D348B"/>
<path d="M4.56311 16.9231H0.512836C0.244022 16.9231 0 17.1672 0 17.4351V21.4871C0 21.756 0.219239 22 0.512836 22H4.56409C4.8329 22 5.07692 21.7807 5.07692 21.4871L5.07597 17.4351C5.07597 17.1672 4.83195 16.9231 4.56313 16.9231H4.56311Z" fill="#3D348B"/>
<path d="M13.026 16.9231H8.97475C8.70594 16.9231 8.46191 17.1423 8.46191 17.4359V21.4872C8.46191 21.756 8.68115 22 8.97475 22H13.026C13.2948 22 13.5388 21.7808 13.5388 21.4872L13.5379 17.4113C13.5379 17.1434 13.2939 16.9232 13.026 16.9232L13.026 16.9231Z" fill="#3D348B"/>
<path d="M21.4844 16.9231H17.4382C17.1681 16.9231 16.9229 17.1424 16.9229 17.4361V21.4871C16.9229 21.756 17.1432 22 17.4382 22H21.4844C21.7546 22 21.9998 21.7807 21.9998 21.4871V17.4351C21.9998 17.1672 21.7785 16.9231 21.4844 16.9231V16.9231Z" fill="#3D348B"/>
</svg>
