<svg version="1.2" xmlns="http://www.w3.org/2000/svg" viewBox="0 0 120 43" width="120" height="43">
	<title>trust-stamp-svg</title>
	<defs>
		<clipPath clipPathUnits="userSpaceOnUse" id="cp1">
			<path d="m0 0h42.05v43h-42.05z"/>
		</clipPath>
		<linearGradient id="g1" x1="10.5" y1="0" x2="21.4" y2="42.9" gradientUnits="userSpaceOnUse">
			<stop offset="0" stop-color="#55a630"/>
			<stop offset="1" stop-color="#2b9348"/>
		</linearGradient>
		<linearGradient id="g2" x1="29.9" y1="0" x2="22.5" y2="41.2" gradientUnits="userSpaceOnUse">
			<stop offset="0" stop-color="#2b9348"/>
			<stop offset="1" stop-color="#55a630"/>
		</linearGradient>
		<linearGradient id="g3" x1="12.3" y1="5.4" x2="21.4" y2="37.7" gradientUnits="userSpaceOnUse">
			<stop offset="0" stop-color="#007f5f"/>
			<stop offset="1" stop-color="#007f5f"/>
		</linearGradient>
		<linearGradient id="g4" x1="27.4" y1="5.4" x2="21.7" y2="37.6" gradientUnits="userSpaceOnUse">
			<stop offset="0" stop-color="#55a630"/>
			<stop offset="1" stop-color="#2b9348"/>
		</linearGradient>
		<linearGradient id="g5" x1="40.3" y1="3.6" x2="21.5" y2="24.7" gradientUnits="userSpaceOnUse">
			<stop offset="0" stop-color="#ffffff"/>
			<stop offset="1" stop-color="#f7fafe"/>
		</linearGradient>
	</defs>
	<style>
		.s0 { fill: #55a630 } 
		.s1 { fill: #007f5f } 
		.s2 { fill: url(#g1) } 
		.s3 { fill: url(#g2) } 
		.s4 { fill: none;stroke: #ffffff;stroke-width: .2 } 
		.s5 { fill: url(#g3) } 
		.s6 { fill: url(#g4) } 
		.s7 { fill: #febd13 } 
		.s8 { fill: url(#g5) } 
	</style>
	<path id="Layer" class="s0" d="m52.8 30.7q0 0.9-0.4 1.6-0.4 0.7-1.2 1.2-0.9 0.4-2.1 0.4-1.2 0-2.1-0.4-0.9-0.4-1.5-1.2-0.5-0.7-0.6-1.7h1.1c0.7 0 1.3 0.6 1.8 1.1q0.5 0.5 1.2 0.5 0.7 0 1.1-0.4 0.4-0.4 0.4-1 0-0.5-0.3-0.8-0.3-0.4-0.8-0.6-0.5-0.2-1.3-0.5-1-0.3-1.7-0.6-0.6-0.4-1.1-1-0.5-0.7-0.5-1.7 0-1.5 1.1-2.3 1-0.8 2.7-0.8 1.8 0 2.8 0.8 1.1 0.9 1.2 2.3h-1.3c-0.6 0-1.1-0.5-1.6-1q-0.4-0.4-1.1-0.4-0.6 0-1 0.4-0.4 0.3-0.4 0.9 0 0.5 0.3 0.8 0.3 0.3 0.8 0.5 0.4 0.2 1.2 0.5 1.1 0.4 1.7 0.7 0.7 0.3 1.2 1 0.4 0.7 0.4 1.7z"/>
	<path id="Layer" class="s0" d="m57.2 24.4v2.9h3.9v1.7h-3.9v3h2.6c1 0 1.8 0.8 1.8 1.8h-6.6v-11.2h6.6c0 1-0.8 1.8-1.8 1.8z"/>
	<path id="Layer" class="s0" d="m65.9 32.1h2.1c0.9 0 1.7 0.8 1.7 1.7h-6v-11.2c1.2 0 2.2 1 2.2 2.3z"/>
	<path id="Layer" class="s0" d="m73.7 32.1h2c1 0 1.7 0.8 1.7 1.7h-5.9v-11.2c1.2 0 2.2 1 2.2 2.3z"/>
	<path id="Layer" class="s0" d="m81.4 24.4v2.9h4v1.7h-4v3h2.7c1 0 1.8 0.8 1.8 1.8h-6.7v-11.2h6.7v1.8z"/>
	<path id="Layer" fill-rule="evenodd" class="s0" d="m96.2 33.8c-1.5 0-2.9-0.8-3.7-2.1l-1.3-2.2h-1v2.1c0 1.2-1 2.2-2.2 2.2v-11.2h4.2q2 0 3 1 1 0.9 1 2.5 0 1.2-0.7 2.1-0.7 0.9-2 1.1zm-6.1-5.8h1.9q1.9 0 1.9-1.7 0-0.8-0.5-1.3-0.5-0.4-1.4-0.4h-1.9z"/>
	<path id="Layer" class="s1" d="m54.2 7.2c0 1.3-1.1 2.4-2.4 2.4h-0.9v10h-3v-10h-0.9c-1.3 0-2.3-1.1-2.3-2.4z"/>
	<path id="Layer" fill-rule="evenodd" class="s1" d="m65.1 19.6c-2 0-3.8-1.1-4.8-2.9l-1.1-1.8h-0.6v1.7c0 1.6-1.4 3-3 3v-12.4h5q1.5 0 2.5 0.5 1 0.5 1.5 1.4 0.5 0.9 0.5 2 0 1.4-0.8 2.3-0.7 1-2.1 1.3zm-6.5-6.7h1.8q0.9 0 1.3-0.4 0.4-0.4 0.4-1.1 0-0.8-0.4-1.2-0.4-0.4-1.3-0.4h-1.8z"/>
	<path id="Layer" class="s1" d="m66.7 7.2c1.6 0 2.9 1.3 2.9 3v4.1q0 1.3 0.5 1.9 0.6 0.6 1.6 0.6 1 0 1.6-0.6 0.5-0.6 0.5-1.9v-4.1c0-1.7 1.4-3 3-3v7.1q0 1.8-0.7 3-0.7 1.2-1.8 1.8-1.2 0.6-2.7 0.6-1.4 0-2.5-0.6-1.2-0.6-1.8-1.8-0.6-1.2-0.6-3z"/>
	<path id="Layer" class="s1" d="m87.7 16.1q0 1-0.5 1.8-0.5 0.8-1.5 1.3-0.9 0.5-2.3 0.5-2 0-3.4-1-1.3-1-1.4-2.9h1.9c0.7 0 1.2 0.7 1.7 1.1q0.4 0.4 1.1 0.4 0.6 0 0.9-0.3 0.3-0.3 0.3-0.8 0-0.5-0.3-0.8-0.3-0.3-0.7-0.5-0.5-0.2-1.3-0.5-1.1-0.4-1.9-0.8-0.7-0.3-1.2-1.1-0.5-0.7-0.5-1.9 0-1.1 0.5-1.9 0.6-0.8 1.5-1.2 1-0.5 2.3-0.5 2 0 3.2 1 1.2 1 1.3 2.7h-2.1c-0.6 0-1-0.5-1.5-1q-0.3-0.3-0.9-0.3-0.6 0-0.9 0.3-0.3 0.2-0.3 0.8 0 0.4 0.3 0.7 0.3 0.3 0.7 0.5 0.4 0.2 1.2 0.5 1.2 0.4 2 0.8 0.7 0.4 1.2 1.1 0.6 0.8 0.6 2z"/>
	<path id="Layer" class="s1" d="m98.2 7.2c0 1.3-1 2.4-2.3 2.4h-1v10h-3v-10h-0.9c-1.3 0-2.3-1.1-2.3-2.4z"/>
	<path id="Layer" class="s1" d="m102.6 9.6v2.6h4.1v2.2h-4.1v2.8h2.2c1.3 0 2.4 1 2.4 2.4h-7.6v-12.4h7.6c0 1.3-1.1 2.4-2.4 2.4z"/>
	<path id="Layer" fill-rule="evenodd" class="s1" d="m120 13.4q0 1.8-0.8 3.2-0.7 1.4-2.2 2.2-1.4 0.8-3.4 0.8h-4.6v-12.4h4.6q2 0 3.4 0.8 1.5 0.8 2.2 2.2 0.8 1.4 0.8 3.2zm-6.6 3.5q1.7 0 2.7-0.9 0.9-1 0.9-2.6 0-1.7-0.9-2.6-1-1-2.7-1h-1.4v7.1z"/>
	<g id="Clip-Path" clip-path="url(#cp1)">
		<g id="Layer">
			<path id="Layer" class="s2" d="m21 43q-0.1 0-0.3 0c-4.9-1.3-9.3-4.3-12.5-8.4-3.1-4.1-4.8-9.2-4.8-14.4v-12.6c0-0.6 0.3-1 0.8-1.2l16.4-6.3q0.4-0.2 0.9 0l16.4 6.3c0.5 0.2 0.8 0.6 0.8 1.2v12.6c0 5.2-1.7 10.3-4.9 14.4-3.1 4.1-7.5 7.1-12.5 8.4q-0.1 0-0.3 0z"/>
			<path id="Layer" class="s3" d="m21.3 43c5-1.3 9.4-4.3 12.5-8.4 3.2-4 4.9-9.2 4.9-14.4v-12.6c0-0.6-0.3-1-0.8-1.2l-16.4-6.3q-0.3-0.1-0.5-0.1v43q0.2 0 0.3 0z"/>
			<path id="Layer" class="s4" d="m20.8 41.1v0.1-0.1c-4.4-1.2-8.4-3.9-11.1-7.6-2.8-3.7-4.4-8.4-4.4-13.2v-11.6c0-0.4 0.3-0.8 0.7-1v-0.1 0.1l14.7-5.8q0.3-0.1 0.7 0l14.7 5.8v-0.1 0.1c0.3 0.2 0.6 0.6 0.6 1v11.6c0 4.8-1.5 9.5-4.3 13.2-2.8 3.7-6.7 6.4-11.1 7.6q-0.1 0-0.3 0-0.1 0-0.2 0z"/>
			<path id="Layer" class="s5" d="m21 37.8q-0.2 0-0.4-0.1c-7.3-2.5-12.3-9.5-12.3-17.5v-9.1c0-0.6 0.3-1 0.8-1.2l11.5-4.4q0.4-0.2 0.9 0l11.5 4.4c0.4 0.2 0.8 0.6 0.8 1.2v9.1c0 8-5 15-12.4 17.5q-0.2 0.1-0.4 0.1z"/>
			<path id="Layer" class="s6" d="m21.4 37.7c7.4-2.5 12.4-9.5 12.4-17.5v-9.1c0-0.6-0.4-1-0.8-1.2l-11.5-4.4q-0.3-0.1-0.5-0.1v32.4q0.2 0 0.4-0.1z"/>
		</g>
	</g>
	<path id="Layer" class="s7" d="m22.1 32.2c-1.7-2.3-7.9-11.3-11.9-13.5 4.2-0.8 9.3 2.6 10.8 3.7 9.5-9.8 13.2-14.6 21.1-18.9-13.7 14.6-17.9 23.3-20 28.7z"/>
	<path id="Layer" class="s8" d="m21.8 28.5c-4.7-6.3-6.6-7.6-11.6-9.8 3.8-0.8 9.1 1 10.8 3.7 9.5-9.8 13.2-14.6 21.1-18.9-13.2 12.5-18.2 19.5-20.3 25z"/>
</svg>