<svg width="54" height="40" viewBox="0 0 54 40" fill="none" xmlns="http://www.w3.org/2000/svg">
<path opacity="0.4" d="M39.0498 0.666694C38.6962 0.40404 38.2937 0.212936 37.8654 0.104292C37.4372 -0.00435069 36.9915 -0.0284052 36.5538 0.033503C36.1162 0.0954113 35.6951 0.24207 35.3147 0.465105C34.9343 0.688139 34.602 0.983183 34.3367 1.33339C34.0715 1.6836 33.8785 2.08211 33.7688 2.50617C33.659 2.93023 33.6348 3.37154 33.6973 3.8049C33.7598 4.23825 33.9079 4.65517 34.1332 5.03185C34.3584 5.40853 34.6564 5.7376 35.01 6.00025C40.2753 9.91041 43.2916 13.7139 45.0187 17.034C42.6474 16.4296 40.1449 16.5717 37.8589 17.4406C35.573 18.3094 33.6172 19.8619 32.2634 21.8821C30.9096 23.9024 30.225 26.2901 30.3048 28.7133C30.3847 31.1366 31.225 33.475 32.7089 35.4036C34.1928 37.3321 36.2467 38.755 38.5849 39.4745C40.9232 40.194 43.4298 40.1742 45.7562 39.418C48.0827 38.6619 50.1134 37.2068 51.5662 35.2551C53.0189 33.3034 53.8216 30.9521 53.8625 28.5278C54.2939 24.4341 53.7067 20.298 52.1523 16.4807C50.1425 11.4605 46.2138 5.98691 39.0498 0.666694ZM8.75128 0.666694C8.3976 0.40404 7.99514 0.212936 7.56688 0.104292C7.13861 -0.00435069 6.69293 -0.0284052 6.25528 0.033503C5.81762 0.0954113 5.39658 0.24207 5.01616 0.465105C4.63575 0.688139 4.30343 0.983183 4.03817 1.33339C3.77291 1.6836 3.57991 2.08211 3.47019 2.50617C3.36047 2.93023 3.33618 3.37154 3.3987 3.8049C3.46122 4.23825 3.60934 4.65517 3.83458 5.03185C4.05983 5.40853 4.35779 5.7376 4.71147 6.00025C9.97668 9.91041 12.9931 13.7139 14.7201 17.034C12.3488 16.4296 9.8463 16.5717 7.56035 17.4406C5.2744 18.3094 3.3186 19.8619 1.96479 21.8821C0.610981 23.9024 -0.0735741 26.2901 0.00627136 28.7133C0.0861206 31.1366 0.926399 33.475 2.41032 35.4036C3.89425 37.3321 5.94809 38.755 8.28637 39.4745C10.6247 40.194 13.1312 40.1742 15.4577 39.418C17.7841 38.6619 19.8148 37.2068 21.2676 35.2551C22.7204 33.3034 23.523 30.9521 23.5639 28.5278C23.9953 24.4341 23.4081 20.298 21.8537 16.4807C19.8406 11.4605 15.9152 5.98691 8.75128 0.666694Z" fill="#4D42B3"/>
</svg>
